<?xml version="1.0" encoding="UTF-8" standalone="no"?>
<!DOCTYPE svg PUBLIC "-//W3C//DTD SVG 1.0//EN" "http://www.w3.org/TR/2001/PR-SVG-20010719/DTD/svg10.dtd">
<svg width="13.5cm" height="11.5cm" viewBox="358 38 204 447" xmlns="http://www.w3.org/2000/svg" xmlns:xlink="http://www.w3.org/1999/xlink">
    <g>
        <rect style="fill: #ffffff" x="360" y="40" width="201" height="44"/>
        <rect style="fill: none; fill-opacity:0; stroke-width: 2; stroke: #7f7f7f" x="360" y="40" width="201" height="44"/>
        <text font-size="15.8044" style="fill: #7f7f7f;text-anchor:middle;font-family:courier new;font-style:normal;font-weight:normal" x="460.5" y="66.7722">
            <tspan x="460.5" y="66.7722">@UnknownRegex</tspan>
        </text>
    </g>
    <g>
        <rect style="fill: #ffffff" x="360" y="120" width="201" height="44"/>
        <rect style="fill: none; fill-opacity:0; stroke-width: 2; stroke: #7f7f7f" x="360" y="120" width="201" height="44"/>
        <text font-size="15.8044" style="fill: #000000;text-anchor:middle;font-family:courier new;font-style:normal;font-weight:normal" x="460.5" y="66.7722">
            <tspan x="460.5" y="146.7722">@Regex(1)</tspan>
        </text>
    </g>
    <g>
        <rect style="fill: #ffffff" x="209" y="200" width="241" height="44"/>
        <rect style="fill: none; fill-opacity:0; stroke-width: 2; stroke: #7f7f7f" x="209.5" y="200" width="241" height="44"/>
        <text font-size="15.8044" style="fill: #000000;text-anchor:middle;font-family:courier new;font-style:normal;font-weight:normal" x="460.5" y="66.7722">
            <tspan x="330" y="226.7722">@RegexNNGroups(1, {1})</tspan>
        </text>
    </g>
    <g>
        <rect style="fill: #ffffff" x="490.5" y="200" width="201" height="44"/>
        <rect style="fill: none; fill-opacity:0; stroke-width: 2; stroke: #7f7f7f" x="490.5" y="200" width="201" height="44"/>
        <text font-size="15.8044" style="fill: #000000;text-anchor:middle;font-family:courier new;font-style:normal;font-weight:normal" x="460.5" y="66.7722">
            <tspan x="591" y="226.7722">@RegexNNGroups(2)</tspan>
        </text>
    </g>
    <g>
        <rect style="fill: #ffffff" x="340" y="280" width="241" height="44"/>
        <rect style="fill: none; fill-opacity:0; stroke-width: 2; stroke: #7f7f7f" x="340" y="280" width="241" height="44"/>
        <text font-size="15.8044" style="fill: #000000;text-anchor:middle;font-family:courier new;font-style:normal;font-weight:normal" x="460.5" y="66.7722">
            <tspan x="460.5" y="306.7722">@RegexNNGroups(2, {1})</tspan>
        </text>
    </g>
    <g>
        <rect style="fill: #ffffff" x="320" y="360" width="281" height="44"/>
        <rect style="fill: none; fill-opacity:0; stroke-width: 2; stroke: #7f7f7f" x="320" y="360" width="281" height="44"/>
        <text font-size="15.8044" style="fill: #000000;text-anchor:middle;font-family:courier new;font-style:normal;font-weight:normal" x="460.5" y="66.7722">
            <tspan x="460.5" y="386.7722">@RegexNNGroups(2, {1, 2})</tspan>
        </text>
    </g>
    <g>
        <rect style="fill: #ffffff" x="360" y="440" width="201" height="44"/>
        <rect style="fill: none; fill-opacity:0; stroke-width: 2; stroke: #7f7f7f" x="360" y="440" width="201" height="44"/>
        <text font-size="15.8044" style="fill: #7f7f7f;text-anchor:middle;font-family:courier new;font-style:normal;font-weight:normal" x="460.5" y="66.7722">
            <tspan x="460.5" y="466.7722">@RegexBottom</tspan>
        </text>
    </g>
    <g>
        <line style="fill: none; fill-opacity:0; stroke-width: 2; stroke: #000000" x1="460.5" y1="120" x2="460.5" y2="93.7361"/>
        <polygon style="fill: #000000" points="460.5,86.2361 465.5,96.2361 460.5,93.7361 455.5,96.2361 "/>
        <polygon style="fill: none; fill-opacity:0; stroke-width: 2; stroke: #000000" points="460.5,86.2361 465.5,96.2361 460.5,93.7361 455.5,96.2361 "/>
    </g>
    <g>
        <line style="fill: none; fill-opacity:0; stroke-width: 2; stroke: #000000" x1="460" y1="360" x2="460.365" y2="333.735"/>
        <polygon style="fill: #000000" points="460.469,326.236 465.33,336.304 460.365,333.735 455.331,336.165 "/>
        <polygon style="fill: none; fill-opacity:0; stroke-width: 2; stroke: #000000" points="460.469,326.236 465.33,336.304 460.365,333.735 455.331,336.165 "/>
    </g>
    <g>
        <line style="fill: none; fill-opacity:0; stroke-width: 2; stroke: #000000" x1="460.5" y1="440" x2="460.127" y2="411.491"/>
        <polygon style="fill: #000000" points="460.029,403.992 465.16,413.926 460.127,411.491 455.16,414.056 "/>
        <polygon style="fill: none; fill-opacity:0; stroke-width: 2; stroke: #000000" points="460.029,403.992 465.16,413.926 460.127,411.491 455.16,414.056 "/>
    </g>
    <path style="fill: none; fill-opacity:0; stroke-width: 2; stroke: #000000" d="m 365.8875,200 58.725,-36" />
    <path style="fill: none; fill-opacity:0; stroke-width: 2; stroke: #000000" d="m 496.3875,164 58.725,36"/>
    <path style="fill: none; fill-opacity:0; stroke-width: 2; stroke: #000000" d="m 365.8875,244 58.725,36"/>
    <path style="fill: none; fill-opacity:0; stroke-width: 2; stroke: #000000" d="m 496.3875,280 58.725,-36"/>
    <path
            style="fill:#000000;stroke-width:2.00028"
            d="m 173.71103,322.06948 -13.41777,-5.46929 11.44543,-8.88549 z"
            transform="matrix(0.11891792,-0.95691137,1.0209797,0.27355437,31.294229,324.162)" />
    <path
            style="fill:#000000;stroke-width:2.00028"
            transform="matrix(0.11891792,-0.95691137,1.0209797,0.27355437,161.79423,244.162)"
            d="m 173.71103,322.06948 -13.41777,-5.46929 11.44543,-8.88549 z" />
    <path
            style="fill:#000000;stroke-width:2.00028"
            transform="matrix(-0.11891792,-0.95691137,-1.0209797,0.27355437,759.20577,244.162)"
            d="m 173.71103,322.06948 -13.41777,-5.46929 11.44543,-8.88549 z" />
    <path
            style="fill:#000000;stroke-width:2.00028"
            transform="matrix(-0.11891792,-0.95691137,-1.0209797,0.27355437,889.70577,324.162)"
            d="m 173.71103,322.06948 -13.41777,-5.46929 11.44543,-8.88549 z" />

</svg>
